<svg width="67" height="94" viewBox="0 0 67 94" fill="none" xmlns="http://www.w3.org/2000/svg">
<path d="M33.3065 0.478516C15.0734 0.478516 0.240234 15.3135 0.240234 33.5488C0.240234 51.1888 30.4706 91.3791 31.7583 93.0832C32.1201 93.5696 32.6998 93.8535 33.3067 93.8535C33.9135 93.8535 34.4932 93.5696 34.855 93.0832C36.1426 91.3791 66.3731 51.189 66.3731 33.5488C66.3727 15.3135 51.5396 0.478516 33.3065 0.478516ZM33.3065 51.0566C23.655 51.0566 15.8008 43.2014 15.8008 33.5488C15.8008 23.8961 23.655 16.041 33.3065 16.041C42.958 16.041 50.8122 23.8961 50.8122 33.5488C50.8122 43.2014 42.958 51.0566 33.3065 51.0566Z" fill="#EB5757"/>
</svg>
